<?xml version="1.0" standalone="no"?>
<!DOCTYPE svg PUBLIC "-//W3C//DTD SVG 1.1//EN" "http://www.w3.org/Graphics/SVG/1.1/DTD/svg11.dtd">
<!--Generator: Xara Designer (www.xara.com), SVG filter version: 6.6.0.1-->
<svg fill="none" fill-rule="evenodd" stroke="black" stroke-width="0.501" stroke-linejoin="bevel" stroke-miterlimit="10" font-family="Times New Roman" font-size="16" style="font-variant-ligatures:none" xmlns:xlink="http://www.w3.org/1999/xlink" xmlns="http://www.w3.org/2000/svg" version="1.1" overflow="visible" width="28.5pt" height="28.5pt" viewBox="0 -28.5 28.5 28.5">
 <defs>
	</defs>
 <g id="Layer 1" transform="scale(1 -1)">
  <path d="M 15.914,2.386 L 10.001,8.641 L 9.87,20.228 L 15.644,25.965 L 15.914,2.386 Z M 18.929,15.072 L 18.929,15.072" stroke="#ffffff" fill="#ffffff" fill-rule="nonzero" stroke-linejoin="miter" stroke-width="0.489"/>
  <path d="M 9.741,8.523 L 2.559,8.504 L 2.428,20.091 L 7.496,20.985 L 9.637,20.981 L 9.741,8.523 Z M 11.487,14.935 L 11.487,14.935" stroke="#ffffff" fill="#ffffff" fill-rule="nonzero" stroke-linejoin="miter" stroke-width="0.489"/>
  <path d="M 19.5,14.25 C 19.5,11.594 18.412,9.052 16.5,7.214 L 15,7.214 L 15,21.285 L 16.5,21.285 C 18.412,19.447 19.5,16.905 19.5,14.25 Z M 19.252,24.87 L 18.255,23.752 C 20.955,21.337 22.5,17.872 22.5,14.25 C 22.5,10.627 20.955,7.162 18.255,4.747 L 19.252,3.63 C 22.267,6.33 24,10.2 24,14.25 C 24,18.3 22.267,22.17 19.252,24.87 Z" fill="#00bfbf" stroke="none" stroke-width="0.75" fill-rule="nonzero" stroke-linejoin="miter" marker-start="none" marker-end="none"/>
  <path d="M 16.5,0.439 L 9.439,7.5 L 3,7.5 C 2.172,7.5 1.5,8.172 1.5,9 L 1.5,19.5 C 1.5,20.327 2.172,21 3,21 L 7.5,21 L 7.5,19.5 L 3,19.5 L 3,9 L 9,9 L 9,20.56 L 16.5,28.06 L 16.5,21.285 C 18.411,19.451 19.5,16.905 19.5,14.25 C 19.5,11.594 18.411,9.048 16.5,7.214 L 16.5,0.439 Z M 10.5,8.56 L 15,4.06 L 15,24.439 L 10.5,19.939 L 10.5,8.56 Z M 16.5,18.991 L 16.5,9.506 C 17.466,10.884 18,12.539 18,14.249 C 18,15.959 17.466,17.614 16.5,18.991 Z" fill="#000000" fill-rule="nonzero" stroke-linejoin="miter" stroke="none" stroke-width="0.75" marker-start="none" marker-end="none"/>
 </g>
</svg>
