<?xml version="1.0" standalone="no"?>
<!DOCTYPE svg PUBLIC "-//W3C//DTD SVG 1.1//EN" "http://www.w3.org/Graphics/SVG/1.1/DTD/svg11.dtd">
<!--Generator: Xara Designer (www.xara.com), SVG filter version: 6.6.0.1-->
<svg fill="none" fill-rule="evenodd" stroke="black" stroke-width="0.501" stroke-linejoin="bevel" stroke-miterlimit="10" font-family="Times New Roman" font-size="16" style="font-variant-ligatures:none" xmlns:xlink="http://www.w3.org/1999/xlink" xmlns="http://www.w3.org/2000/svg" version="1.1" overflow="visible" width="28.5pt" height="28.5pt" viewBox="0 -28.5 28.5 28.5">
 <defs>
	</defs>
 <g id="Layer 1" transform="scale(1 -1)">
  <g id="Group" fill-rule="nonzero" stroke-linejoin="miter">
   <path d="M 17.414,2.386 L 11.501,8.641 L 11.37,20.228 L 17.144,25.965 L 17.414,2.386 Z M 20.429,15.072 L 20.429,15.072" stroke="#ffffff" fill="#ffffff" stroke-width="0.488"/>
   <path d="M 11.241,8.523 L 4.059,8.504 L 3.928,20.091 L 11.136,20.268 L 11.241,8.523 Z M 12.987,14.935 L 12.987,14.935" stroke="#ffffff" fill="#ffffff" stroke-width="0.488"/>
   <path d="M 21,14.25 C 21,11.594 19.912,9.052 18,7.214 L 16.5,7.214 L 16.5,21.285 L 18,21.285 C 19.912,19.447 21,16.905 21,14.25 Z M 20.752,24.87 L 19.755,23.752 C 22.455,21.337 24,17.872 24,14.25 C 24,10.627 22.455,7.162 19.755,4.747 L 20.752,3.63 C 23.767,6.33 25.5,10.2 25.5,14.25 C 25.5,18.3 23.767,22.17 20.752,24.87 Z" fill="#00bfbf" stroke="none" stroke-width="0.75" marker-start="none" marker-end="none"/>
   <path d="M 18,0.439 L 10.939,7.5 L 4.5,7.5 C 3.672,7.5 3,8.172 3,9 L 3,19.5 C 3,20.327 3.672,21 4.5,21 L 11.832,21 L 11.732,19.5 L 4.5,19.5 L 4.5,9 L 10.5,9 L 10.5,20.56 L 18,28.06 L 18,21.285 C 19.911,19.451 21,16.905 21,14.25 C 21,11.594 19.911,9.048 18,7.214 L 18,0.439 Z M 12,8.56 L 16.5,4.06 L 16.5,24.439 L 12,19.939 L 12,8.56 Z M 18,18.991 L 18,9.506 C 18.966,10.884 19.5,12.539 19.5,14.249 C 19.5,15.959 18.966,17.614 18,18.991 Z" stroke="none" fill="#000000" stroke-width="0.75" marker-start="none" marker-end="none"/>
  </g>
 </g>
</svg>
